# Blender v3.0.0 OBJ File: 'maus.blend'
# www.blender.org
o turretweapon.005_mg.001
v -1.080215 2.568947 0.083029
v -1.079706 2.568947 0.301180
v -1.070215 2.551626 0.083029
v -1.069620 2.551476 0.301180
v -1.050215 2.551626 0.083029
v -1.049446 2.551476 0.301180
v -1.040215 2.568947 0.083029
v -1.039360 2.568947 0.301180
v -1.050215 2.586267 0.083029
v -1.049446 2.586417 0.301180
v -1.070215 2.586267 0.083029
v -1.069620 2.586417 0.301180
v -1.080215 2.568947 0.263763
v -1.070215 2.551626 0.263763
v -1.050215 2.551626 0.263763
v -1.040215 2.568947 0.263763
v -1.050215 2.586267 0.263763
v -1.070215 2.586267 0.263763
v -1.075367 2.568947 0.264665
v -1.067813 2.555862 0.264665
v -1.052704 2.555862 0.264665
v -1.045150 2.568947 0.264665
v -1.052704 2.582031 0.264665
v -1.067813 2.582031 0.264665
v -1.060215 2.568947 -0.290416
vt 0.628547 0.987955
vt 0.625292 0.988302
vt 0.628148 0.989106
vt 0.628114 0.993918
vt 0.625825 0.996248
vt 0.628547 0.995058
vt 0.627852 0.992728
vt 0.625247 0.994727
vt 0.624802 0.991513
vt 0.624898 0.993137
vt 0.957473 0.806094
vt 0.958883 0.806908
vt 0.960292 0.806095
vt 0.627780 0.991511
vt 0.624944 0.989892
vt 0.627887 0.990297
vt 0.876950 0.974055
vt 0.875337 0.988636
vt 0.876950 0.988636
vt 0.878564 0.974055
vt 0.878564 0.988636
vt 0.880177 0.988636
vt 0.880177 0.974055
vt 0.881790 0.988636
vt 0.881790 0.974055
vt 0.883404 0.988636
vt 0.883404 0.974055
vt 0.873723 0.974055
vt 0.875337 0.974055
vt 0.060975 0.979734
vt 0.060002 0.978650
vt 0.059642 0.978823
vt 0.060071 0.977433
vt 0.059734 0.977213
vt 0.061149 0.976864
vt 0.061161 0.976459
vt 0.062542 0.977292
vt 0.062193 0.977493
vt 0.062542 0.978906
vt 0.062193 0.978711
vt 0.062117 0.978831
vt 0.061009 0.979337
vt 0.625825 0.986764
vt 0.960292 0.804467
vt 0.958883 0.803653
vt 0.957473 0.804467
vt 0.873723 0.988636
vt 0.062442 0.979063
vn -0.5009 -0.8561 -0.1276
vn -0.9930 0.0000 -0.1180
vn 0.4896 -0.8595 -0.1469
vn -0.4915 -0.8615 -0.1278
vn 0.9877 0.0000 -0.1566
vn 0.4989 -0.8541 -0.1471
vn 0.4989 0.8541 -0.1471
vn 0.0000 0.0000 1.0000
vn 0.4896 0.8595 -0.1469
vn -0.4915 0.8615 -0.1278
vn -0.5009 0.8561 -0.1276
vn -0.5000 0.8660 0.0000
vn -1.0000 0.0000 0.0000
vn 0.5000 0.8660 -0.0000
vn 1.0000 0.0000 -0.0000
vn 0.5000 -0.8660 -0.0000
vn -0.5000 -0.8660 0.0000
vn -0.1829 -0.0000 0.9831
vn -0.0918 0.1573 0.9833
vn -0.0908 0.1578 0.9833
vn 0.0895 0.1567 0.9836
vn 0.0905 0.1562 0.9836
vn 0.1798 0.0000 0.9837
vn 0.0905 -0.1562 0.9836
vn 0.0896 -0.1567 0.9836
vn -0.0908 -0.1578 0.9833
vn -0.0918 -0.1573 0.9833
s 1
f 20/1/1 2/2/2 19/3/2
f 21/4/3 4/5/4 20/6/1
f 22/7/5 6/8/6 21/4/3
f 22/7/5 10/9/7 8/10/5
f 10/11/8 12/12/8 2/13/8
f 23/14/9 12/15/10 10/9/7
f 24/16/11 2/2/2 12/15/10
f 11/17/12 13/18/13 18/19/12
f 9/20/14 18/19/12 17/21/14
f 9/20/14 16/22/15 7/23/15
f 7/23/15 15/24/16 5/25/16
f 5/25/16 14/26/17 3/27/17
f 3/28/17 13/18/13 1/29/13
f 13/30/18 24/31/19 18/32/20
f 18/32/20 23/33/21 17/34/22
f 17/34/22 22/35/23 16/36/23
f 15/37/24 22/35/23 21/38/25
f 14/39/26 21/38/25 20/40/27
f 13/30/18 20/41/27 19/42/18
f 20/1/1 4/43/4 2/2/2
f 21/4/3 6/8/6 4/5/4
f 22/7/5 8/10/5 6/8/6
f 22/7/5 23/14/9 10/9/7
f 2/13/8 4/44/8 10/11/8
f 4/44/8 6/45/8 10/11/8
f 6/45/8 8/46/8 10/11/8
f 23/14/9 24/16/11 12/15/10
f 24/16/11 19/3/2 2/2/2
f 11/17/12 1/29/13 13/18/13
f 9/20/14 11/17/12 18/19/12
f 9/20/14 17/21/14 16/22/15
f 7/23/15 16/22/15 15/24/16
f 5/25/16 15/24/16 14/26/17
f 3/28/17 14/47/17 13/18/13
f 13/30/18 19/42/18 24/31/19
f 18/32/20 24/31/19 23/33/21
f 17/34/22 23/33/21 22/35/23
f 15/37/24 16/36/23 22/35/23
f 14/39/26 15/37/24 21/38/25
f 13/30/18 14/48/26 20/41/27
