# Blender v3.0.0 OBJ File: 'maus.blend'
# www.blender.org
o roller.004_wheels2.001
v 1.360120 0.022228 2.993568
v 1.360120 0.089202 2.965826
v 1.013507 0.089202 2.965826
v 1.013507 0.022228 2.993568
v 1.360120 0.116944 2.898853
v 1.013507 0.116944 2.898853
v 1.360120 0.089202 2.831879
v 1.013507 0.089202 2.831879
v 1.360120 0.022228 2.804137
v 1.013507 0.022228 2.804137
v 1.360120 -0.044745 2.831879
v 1.013507 -0.044745 2.831879
v 1.360120 -0.072487 2.898853
v 1.013507 -0.072487 2.898853
v 1.360120 -0.044745 2.965826
v 1.013507 -0.044745 2.965826
v 0.925335 0.021685 3.149028
v 0.925335 -0.073905 3.130014
v 1.023421 -0.073905 3.130014
v 1.023421 0.021685 3.149028
v 0.925335 -0.154942 3.075866
v 1.023421 -0.154942 3.075866
v 0.925335 -0.209089 2.994830
v 1.023421 -0.209089 2.994830
v 0.925335 -0.228103 2.899239
v 1.023421 -0.228103 2.899239
v 0.925335 -0.209089 2.803649
v 1.023421 -0.209089 2.803649
v 0.925335 -0.154942 2.722612
v 1.023421 -0.154942 2.722612
v 0.925335 -0.073905 2.668465
v 1.023421 -0.073905 2.668465
v 0.925335 0.021685 2.649451
v 1.023421 0.021685 2.649451
v 0.925335 0.117275 2.668465
v 1.023421 0.117275 2.668465
v 0.925335 0.198312 2.722612
v 1.023421 0.198312 2.722612
v 0.925335 0.252459 2.803649
v 1.023421 0.252459 2.803649
v 0.925335 0.271474 2.899240
v 1.023421 0.271474 2.899240
v 0.925335 0.252459 2.994830
v 1.023421 0.252459 2.994830
v 0.925335 0.198312 3.075866
v 1.023421 0.198312 3.075866
v 0.925335 0.117274 3.130014
v 1.023421 0.117274 3.130014
v 1.023421 0.021685 2.899240
v 0.925335 0.021685 2.899240
vt 0.659229 0.923430
vt 0.633151 0.917975
vt 0.659229 0.917975
vt 0.659229 0.928884
vt 0.633151 0.923430
vt 0.659229 0.934338
vt 0.633151 0.928884
vt 0.659229 0.939792
vt 0.633151 0.934338
vt 0.659229 0.945246
vt 0.633151 0.939792
vt 0.659229 0.950701
vt 0.633151 0.945246
vt 0.659229 0.912521
vt 0.633150 0.907067
vt 0.659229 0.907067
vt 0.633151 0.912521
vt 0.798319 0.299158
vt 0.807630 0.295301
vt 0.798319 0.304612
vt 0.811487 0.304612
vt 0.802176 0.308469
vt 0.925192 0.466886
vt 0.908414 0.459553
vt 0.925192 0.459553
vt 0.925192 0.474219
vt 0.908414 0.466886
vt 0.925192 0.481552
vt 0.908414 0.474219
vt 0.925192 0.488885
vt 0.908414 0.481552
vt 0.925192 0.378891
vt 0.908414 0.371558
vt 0.925192 0.371558
vt 0.925192 0.386224
vt 0.908414 0.378891
vt 0.925192 0.393557
vt 0.908414 0.386224
vt 0.925192 0.400890
vt 0.908414 0.393557
vt 0.925192 0.408223
vt 0.908414 0.400890
vt 0.925192 0.415556
vt 0.908414 0.408223
vt 0.925192 0.422889
vt 0.908414 0.415556
vt 0.925192 0.430221
vt 0.908414 0.422889
vt 0.925192 0.437554
vt 0.908414 0.430221
vt 0.925192 0.444887
vt 0.908414 0.437554
vt 0.925192 0.452220
vt 0.908414 0.444887
vt 0.908414 0.452220
vt 0.825795 0.943281
vt 0.822989 0.950056
vt 0.807363 0.939615
vt 0.817804 0.955241
vt 0.811029 0.958047
vt 0.803696 0.958047
vt 0.796921 0.955241
vt 0.791736 0.950056
vt 0.788930 0.943281
vt 0.788930 0.935948
vt 0.791736 0.929173
vt 0.796921 0.923988
vt 0.803696 0.921182
vt 0.811029 0.921182
vt 0.817804 0.923988
vt 0.822989 0.929173
vt 0.825795 0.935948
vt 0.844769 0.958047
vt 0.837994 0.955241
vt 0.848435 0.939614
vt 0.852102 0.958047
vt 0.858876 0.955241
vt 0.864061 0.950055
vt 0.866867 0.943281
vt 0.866867 0.935948
vt 0.864061 0.929173
vt 0.858876 0.923988
vt 0.852101 0.921182
vt 0.844768 0.921182
vt 0.837994 0.923988
vt 0.832808 0.929173
vt 0.830002 0.935948
vt 0.830003 0.943281
vt 0.832808 0.950056
vt 0.633151 0.950701
vt 0.802176 0.295301
vt 0.807630 0.308469
vt 0.811487 0.299158
vt 0.908414 0.488885
vn 0.0000 0.7071 0.7071
vn -0.0000 -0.0000 1.0000
vn 0.0000 1.0000 0.0000
vn 0.0000 0.7071 -0.7071
vn -0.0000 -0.0000 -1.0000
vn -0.0000 -0.7071 -0.7071
vn -0.0000 -1.0000 0.0000
vn -0.0000 -0.7071 0.7071
vn 1.0000 0.0000 0.0000
vn -0.0000 -0.3827 0.9239
vn -0.0000 -0.9239 0.3827
vn -0.0000 -0.9239 -0.3827
vn 0.0000 -0.3827 -0.9239
vn 0.0000 0.3827 -0.9239
vn 0.0000 0.9239 -0.3827
vn 0.0000 0.9239 0.3827
vn -0.0000 0.3827 0.9239
vn -1.0000 0.0000 0.0000
s 1
f 2/1/1 4/2/2 1/3/2
f 5/4/3 3/5/1 2/1/1
f 7/6/4 6/7/3 5/4/3
f 9/8/5 8/9/4 7/6/4
f 11/10/6 10/11/5 9/8/5
f 13/12/7 12/13/6 11/10/6
f 15/14/8 14/15/7 13/16/7
f 1/3/2 16/17/8 15/14/8
f 2/18/9 15/19/9 5/20/9
f 11/21/9 7/22/9 5/20/9
f 15/19/9 11/21/9 5/20/9
f 18/23/10 20/24/2 17/25/2
f 21/26/8 19/27/10 18/23/10
f 23/28/11 22/29/8 21/26/8
f 25/30/7 24/31/11 23/28/11
f 27/32/12 26/33/7 25/34/7
f 29/35/6 28/36/12 27/32/12
f 31/37/13 30/38/6 29/35/6
f 33/39/5 32/40/13 31/37/13
f 35/41/14 34/42/5 33/39/5
f 37/43/4 36/44/14 35/41/14
f 39/45/15 38/46/4 37/43/4
f 41/47/3 40/48/15 39/45/15
f 43/49/16 42/50/3 41/47/3
f 45/51/1 44/52/16 43/49/16
f 47/53/17 46/54/1 45/51/1
f 17/25/2 48/55/17 47/53/17
f 20/56/9 19/57/9 49/58/9
f 19/57/9 22/59/9 49/58/9
f 22/59/9 24/60/9 49/58/9
f 24/60/9 26/61/9 49/58/9
f 26/61/9 28/62/9 49/58/9
f 28/62/9 30/63/9 49/58/9
f 30/63/9 32/64/9 49/58/9
f 32/64/9 34/65/9 49/58/9
f 34/65/9 36/66/9 49/58/9
f 36/66/9 38/67/9 49/58/9
f 38/67/9 40/68/9 49/58/9
f 40/68/9 42/69/9 49/58/9
f 42/69/9 44/70/9 49/58/9
f 44/70/9 46/71/9 49/58/9
f 46/71/9 48/72/9 49/58/9
f 48/72/9 20/56/9 49/58/9
f 18/73/18 17/74/18 50/75/18
f 21/76/18 18/73/18 50/75/18
f 23/77/18 21/76/18 50/75/18
f 25/78/18 23/77/18 50/75/18
f 27/79/18 25/78/18 50/75/18
f 29/80/18 27/79/18 50/75/18
f 31/81/18 29/80/18 50/75/18
f 33/82/18 31/81/18 50/75/18
f 35/83/18 33/82/18 50/75/18
f 37/84/18 35/83/18 50/75/18
f 39/85/18 37/84/18 50/75/18
f 41/86/18 39/85/18 50/75/18
f 43/87/18 41/86/18 50/75/18
f 45/88/18 43/87/18 50/75/18
f 47/89/18 45/88/18 50/75/18
f 17/74/18 47/89/18 50/75/18
f 2/1/1 3/5/1 4/2/2
f 5/4/3 6/7/3 3/5/1
f 7/6/4 8/9/4 6/7/3
f 9/8/5 10/11/5 8/9/4
f 11/10/6 12/13/6 10/11/5
f 13/12/7 14/90/7 12/13/6
f 15/14/8 16/17/8 14/15/7
f 1/3/2 4/2/2 16/17/8
f 2/18/9 1/91/9 15/19/9
f 11/21/9 9/92/9 7/22/9
f 15/19/9 13/93/9 11/21/9
f 18/23/10 19/27/10 20/24/2
f 21/26/8 22/29/8 19/27/10
f 23/28/11 24/31/11 22/29/8
f 25/30/7 26/94/7 24/31/11
f 27/32/12 28/36/12 26/33/7
f 29/35/6 30/38/6 28/36/12
f 31/37/13 32/40/13 30/38/6
f 33/39/5 34/42/5 32/40/13
f 35/41/14 36/44/14 34/42/5
f 37/43/4 38/46/4 36/44/14
f 39/45/15 40/48/15 38/46/4
f 41/47/3 42/50/3 40/48/15
f 43/49/16 44/52/16 42/50/3
f 45/51/1 46/54/1 44/52/16
f 47/53/17 48/55/17 46/54/1
f 17/25/2 20/24/2 48/55/17
