# Blender v3.0.0 OBJ File: 'maus.blend'
# www.blender.org
o roller.026_wheels1.009
v -1.526059 0.021868 0.579325
v -1.526059 -0.061264 0.562789
v -1.490150 -0.061264 0.562789
v -1.490150 0.021868 0.579325
v -1.526059 -0.131738 0.515699
v -1.490150 -0.131738 0.515699
v -1.526059 -0.178828 0.445224
v -1.490150 -0.178828 0.445224
v -1.526059 -0.195364 0.362092
v -1.490150 -0.195364 0.362092
v -1.526059 -0.178828 0.278961
v -1.490150 -0.178828 0.278961
v -1.526059 -0.131738 0.208486
v -1.490150 -0.131738 0.208486
v -1.526059 -0.061264 0.161396
v -1.490150 -0.061264 0.161396
v -1.526059 0.021868 0.144861
v -1.490150 0.021868 0.144861
v -1.526059 0.104998 0.161396
v -1.490150 0.104998 0.161396
v -1.526060 0.175474 0.208486
v -1.490150 0.175474 0.208486
v -1.526060 0.222563 0.278961
v -1.490150 0.222563 0.278961
v -1.526060 0.239099 0.362092
v -1.490150 0.239099 0.362092
v -1.526060 0.222563 0.445224
v -1.490150 0.222563 0.445224
v -1.526060 0.175474 0.515699
v -1.490150 0.175474 0.515699
v -1.526059 0.104998 0.562789
v -1.490150 0.104998 0.562789
v -1.525675 0.021868 0.611881
v -1.525675 -0.073722 0.592867
v -1.525675 -0.154760 0.538720
v -1.525675 -0.208907 0.457683
v -1.525675 -0.227921 0.362092
v -1.525675 -0.208907 0.266502
v -1.525675 -0.154760 0.185465
v -1.525675 -0.073722 0.131318
v -1.525675 0.021868 0.112304
v -1.525675 0.117457 0.131318
v -1.525675 0.198494 0.185465
v -1.525675 0.252643 0.266502
v -1.525675 0.271656 0.362092
v -1.525675 0.252642 0.457683
v -1.525675 0.198494 0.538720
v -1.525675 0.117457 0.592867
v -1.383218 0.021868 0.611881
v -1.383218 -0.073722 0.592867
v -1.383218 -0.154760 0.538720
v -1.383218 -0.208907 0.457683
v -1.383218 -0.227921 0.362092
v -1.383218 -0.208907 0.266502
v -1.383218 -0.154760 0.185465
v -1.383218 -0.073722 0.131318
v -1.383218 0.021868 0.112304
v -1.383218 0.117457 0.131318
v -1.383218 0.198494 0.185465
v -1.383219 0.252643 0.266502
v -1.383219 0.271656 0.362092
v -1.383219 0.252643 0.457683
v -1.383218 0.198494 0.538720
v -1.383218 0.117457 0.592867
v -1.511880 0.021868 0.362092
v -1.383218 0.021868 0.362092
v -1.481564 0.021867 0.480773
v -1.481564 -0.047892 0.458108
v -1.524792 -0.038037 0.444544
v -1.524792 0.021867 0.464007
v -1.481564 -0.091005 0.398767
v -1.524792 -0.075059 0.393586
v -1.481564 -0.091005 0.325418
v -1.524792 -0.075059 0.330599
v -1.481564 -0.047892 0.266077
v -1.524792 -0.038037 0.279642
v -1.481564 0.021867 0.243412
v -1.524792 0.021867 0.260178
v -1.481564 0.091626 0.266077
v -1.524792 0.081770 0.279642
v -1.481564 0.134740 0.325418
v -1.524792 0.118794 0.330599
v -1.481564 0.134740 0.398767
v -1.524792 0.118794 0.393586
v -1.481564 0.091626 0.458108
v -1.524792 0.081770 0.444544
v -1.531522 0.021867 0.362092
vt 0.277586 0.810565
vt 0.274105 0.802347
vt 0.274105 0.810565
vt 0.277586 0.794129
vt 0.274105 0.794129
vt 0.277586 0.785911
vt 0.274105 0.785911
vt 0.277586 0.777693
vt 0.274105 0.777693
vt 0.277586 0.909182
vt 0.274105 0.900964
vt 0.274105 0.909182
vt 0.277586 0.900964
vt 0.274105 0.892746
vt 0.277586 0.892746
vt 0.274105 0.884528
vt 0.277586 0.876310
vt 0.274105 0.876310
vt 0.274105 0.868092
vt 0.277586 0.859873
vt 0.274105 0.859873
vt 0.274105 0.851656
vt 0.277586 0.851656
vt 0.274105 0.843437
vt 0.277586 0.843437
vt 0.274105 0.835219
vt 0.277586 0.827001
vt 0.274105 0.827001
vt 0.274105 0.818783
vt 0.094950 0.878854
vt 0.091853 0.870020
vt 0.091853 0.879469
vt 0.094950 0.870636
vt 0.095470 0.861289
vt 0.103906 0.857232
vt 0.102152 0.854607
vt 0.111498 0.854087
vt 0.110882 0.850991
vt 0.120332 0.850991
vt 0.119716 0.854087
vt 0.129063 0.854607
vt 0.133120 0.863043
vt 0.135745 0.861289
vt 0.136265 0.870636
vt 0.139361 0.870020
vt 0.139361 0.879469
vt 0.136265 0.878854
vt 0.135745 0.888200
vt 0.127309 0.892257
vt 0.129063 0.894882
vt 0.119716 0.895402
vt 0.120332 0.898498
vt 0.110882 0.898498
vt 0.111498 0.895402
vt 0.102152 0.894882
vt 0.098095 0.886446
vt 0.095470 0.888200
vt 0.906053 0.778054
vt 0.919865 0.787504
vt 0.919865 0.778054
vt 0.906053 0.787504
vt 0.919865 0.796954
vt 0.906053 0.796954
vt 0.919865 0.806404
vt 0.906053 0.806404
vt 0.919865 0.815853
vt 0.906053 0.664658
vt 0.919865 0.674107
vt 0.919865 0.664658
vt 0.906053 0.683557
vt 0.919865 0.683557
vt 0.906053 0.693007
vt 0.919865 0.693007
vt 0.906053 0.702456
vt 0.919865 0.702456
vt 0.906053 0.711906
vt 0.919865 0.711906
vt 0.906053 0.721356
vt 0.919865 0.721356
vt 0.919865 0.730806
vt 0.906053 0.730806
vt 0.919865 0.740255
vt 0.906053 0.740255
vt 0.919865 0.749705
vt 0.906053 0.759155
vt 0.919865 0.759155
vt 0.919865 0.768605
vt 0.906053 0.768605
vt 0.260267 0.884971
vt 0.242709 0.896703
vt 0.263420 0.892583
vt 0.263420 0.900822
vt 0.260267 0.908434
vt 0.254441 0.914261
vt 0.246830 0.917414
vt 0.238590 0.917414
vt 0.230978 0.914262
vt 0.225151 0.908436
vt 0.221998 0.900824
vt 0.221998 0.892584
vt 0.225151 0.884972
vt 0.230977 0.879146
vt 0.238589 0.875993
vt 0.246828 0.875992
vt 0.254440 0.879145
vt 0.196207 0.870019
vt 0.172453 0.874744
vt 0.196207 0.879469
vt 0.192591 0.861289
vt 0.185909 0.854607
vt 0.177178 0.850991
vt 0.167729 0.850991
vt 0.158998 0.854607
vt 0.152316 0.861289
vt 0.148700 0.870020
vt 0.148700 0.879469
vt 0.152316 0.888200
vt 0.158998 0.894882
vt 0.167729 0.898498
vt 0.177178 0.898498
vt 0.185909 0.894882
vt 0.192591 0.888200
vt 0.193703 0.917563
vt 0.200999 0.914336
vt 0.197480 0.911537
vt 0.202501 0.906501
vt 0.210475 0.906751
vt 0.208516 0.902705
vt 0.208516 0.959984
vt 0.205311 0.952679
vt 0.202501 0.956188
vt 0.197480 0.951152
vt 0.197756 0.943179
vt 0.193704 0.945126
vt 0.195742 0.937414
vt 0.191359 0.938412
vt 0.190564 0.931345
vt 0.195060 0.931345
vt 0.191359 0.924277
vt 0.195742 0.925276
vt 0.877458 0.257696
vt 0.877458 0.267590
vt 0.883273 0.259586
vt 0.886867 0.264532
vt 0.886867 0.270647
vt 0.883273 0.275593
vt 0.877458 0.277483
vt 0.871643 0.275593
vt 0.868049 0.270647
vt 0.868049 0.264532
vt 0.871643 0.259586
vt 0.277586 0.802347
vt 0.277586 0.884528
vt 0.277586 0.868092
vt 0.277586 0.835219
vt 0.277586 0.818783
vt 0.098095 0.863043
vt 0.127309 0.857232
vt 0.133120 0.886446
vt 0.103906 0.892257
vt 0.906053 0.815853
vt 0.906053 0.674107
vt 0.906053 0.749705
vt 0.197756 0.919510
vt 0.205311 0.910011
vt 0.210475 0.955938
vt 0.200999 0.948354
vn -0.0000 -0.0000 -1.0000
vn -0.0000 0.3827 -0.9239
vn 0.0000 0.7071 -0.7071
vn -0.0000 0.9239 -0.3827
vn -0.0000 1.0000 0.0000
vn -0.0000 0.9239 0.3827
vn -0.0000 0.7071 0.7071
vn -0.0000 0.3827 0.9239
vn -0.0000 -0.0000 1.0000
vn 0.0000 -0.3827 0.9239
vn 0.0000 -0.7071 0.7071
vn 0.0000 -0.9239 0.3827
vn 0.0000 -1.0000 0.0000
vn 0.0000 -0.9239 -0.3827
vn 0.0000 -0.7071 -0.7071
vn 0.0000 -0.3827 -0.9239
vn -0.9999 0.0000 0.0118
vn -0.9999 -0.0045 0.0109
vn -0.9999 -0.0083 0.0084
vn -0.9999 -0.0109 0.0045
vn -0.9999 -0.0118 -0.0000
vn -0.9999 -0.0109 -0.0045
vn -0.9999 -0.0084 -0.0084
vn -0.9999 -0.0045 -0.0109
vn -0.9999 -0.0000 -0.0118
vn -0.9999 0.0045 -0.0109
vn -0.9999 0.0084 -0.0084
vn -0.9999 0.0109 -0.0045
vn -0.9999 0.0118 -0.0000
vn -0.9999 0.0109 0.0045
vn -0.9999 0.0084 0.0084
vn -0.9999 0.0045 0.0109
vn -0.9950 0.0000 0.0995
vn -1.0000 -0.0000 -0.0000
vn -0.9950 -0.0381 0.0920
vn -0.9950 -0.0704 0.0704
vn -0.9950 -0.0920 0.0381
vn -0.9950 -0.0995 -0.0000
vn -0.9950 -0.0920 -0.0381
vn -0.9950 -0.0704 -0.0704
vn -0.9950 -0.0381 -0.0920
vn -0.9950 0.0000 -0.0995
vn -0.9950 0.0381 -0.0920
vn -0.9950 0.0704 -0.0704
vn -0.9950 0.0920 -0.0381
vn -0.9950 0.0995 -0.0000
vn -0.9950 0.0920 0.0381
vn -0.9950 0.0704 0.0704
vn -0.9950 0.0381 0.0920
vn 1.0000 0.0000 0.0000
vn -0.3616 0.0000 0.9323
vn -0.3616 -0.5480 0.7543
vn -0.3616 -0.8867 0.2881
vn -0.3616 -0.8867 -0.2881
vn -0.3616 -0.5480 -0.7543
vn -0.3616 0.0000 -0.9323
vn -0.3616 0.5480 -0.7543
vn -0.3616 0.8867 -0.2881
vn -0.3616 0.8867 0.2881
vn -0.3616 0.5480 0.7543
vn -0.9978 0.0000 0.0659
vn -0.9978 -0.0387 0.0533
vn -0.9978 -0.0627 0.0204
vn -0.9978 -0.0627 -0.0204
vn -0.9978 -0.0387 -0.0533
vn -0.9978 0.0000 -0.0659
vn -0.9978 0.0387 -0.0533
vn -0.9978 0.0627 -0.0204
vn -0.9978 0.0627 0.0204
vn -0.9978 0.0387 0.0533
s 1
f 4/1/1 2/2/2 1/3/1
f 2/2/2 6/4/3 5/5/3
f 5/5/3 8/6/4 7/7/4
f 7/7/4 10/8/5 9/9/5
f 10/10/5 11/11/6 9/12/5
f 12/13/6 13/14/7 11/11/6
f 14/15/7 15/16/8 13/14/7
f 15/16/8 18/17/9 17/18/9
f 18/17/9 19/19/10 17/18/9
f 19/19/10 22/20/11 21/21/11
f 22/20/11 23/22/12 21/21/11
f 24/23/12 25/24/13 23/22/12
f 26/25/13 27/26/14 25/24/13
f 27/26/14 30/27/15 29/28/15
f 30/27/15 31/29/16 29/28/15
f 31/29/16 4/1/1 1/3/1
f 1/30/17 34/31/18 33/32/17
f 2/33/18 35/34/19 34/31/18
f 35/34/19 7/35/20 36/36/20
f 36/36/20 9/37/21 37/38/21
f 9/37/21 38/39/22 37/38/21
f 11/40/22 39/41/23 38/39/22
f 39/41/23 15/42/24 40/43/24
f 40/43/24 17/44/25 41/45/25
f 17/44/25 42/46/26 41/45/25
f 19/47/26 43/48/27 42/46/26
f 43/48/27 23/49/28 44/50/28
f 44/50/28 25/51/29 45/52/29
f 25/51/29 46/53/30 45/52/29
f 27/54/30 47/55/31 46/53/30
f 47/55/31 31/56/32 48/57/32
f 48/57/32 1/30/17 33/32/17
f 33/58/9 50/59/10 49/60/9
f 34/61/10 51/62/11 50/59/10
f 35/63/11 52/64/12 51/62/11
f 36/65/12 53/66/13 52/64/12
f 37/67/13 54/68/14 53/69/13
f 54/68/14 39/70/15 55/71/15
f 55/71/15 40/72/16 56/73/16
f 56/73/16 41/74/1 57/75/1
f 57/75/1 42/76/2 58/77/2
f 58/77/2 43/78/3 59/79/3
f 43/78/3 60/80/4 59/79/3
f 44/81/4 61/82/5 60/80/4
f 45/83/5 62/84/6 61/82/5
f 62/84/6 47/85/7 63/86/7
f 47/85/7 64/87/8 63/86/7
f 48/88/8 49/60/9 64/87/8
f 4/89/33 65/90/34 3/91/35
f 3/91/35 65/90/34 6/92/36
f 6/92/36 65/90/34 8/93/37
f 8/93/37 65/90/34 10/94/38
f 10/94/38 65/90/34 12/95/39
f 12/95/39 65/90/34 14/96/40
f 14/96/40 65/90/34 16/97/41
f 16/97/41 65/90/34 18/98/42
f 18/98/42 65/90/34 20/99/43
f 20/99/43 65/90/34 22/100/44
f 22/100/44 65/90/34 24/101/45
f 24/101/45 65/90/34 26/102/46
f 26/102/46 65/90/34 28/103/47
f 28/103/47 65/90/34 30/104/48
f 30/104/48 65/90/34 32/105/49
f 32/105/49 65/90/34 4/89/33
f 50/106/50 66/107/50 49/108/50
f 51/109/50 66/107/50 50/106/50
f 52/110/50 66/107/50 51/109/50
f 53/111/50 66/107/50 52/110/50
f 54/112/50 66/107/50 53/111/50
f 55/113/50 66/107/50 54/112/50
f 56/114/50 66/107/50 55/113/50
f 57/115/50 66/107/50 56/114/50
f 58/116/50 66/107/50 57/115/50
f 59/117/50 66/107/50 58/116/50
f 60/118/50 66/107/50 59/117/50
f 61/119/50 66/107/50 60/118/50
f 62/120/50 66/107/50 61/119/50
f 63/121/50 66/107/50 62/120/50
f 64/122/50 66/107/50 63/121/50
f 49/108/50 66/107/50 64/122/50
f 67/123/51 69/124/52 68/125/52
f 69/124/52 71/126/53 68/125/52
f 71/126/53 74/127/54 73/128/54
f 73/129/54 76/130/55 75/131/55
f 76/130/55 77/132/56 75/131/55
f 77/132/56 80/133/57 79/134/57
f 79/134/57 82/135/58 81/136/58
f 82/135/58 83/137/59 81/136/58
f 84/138/59 85/139/60 83/137/59
f 86/140/60 67/123/51 85/139/60
f 70/141/61 87/142/34 69/143/62
f 69/143/62 87/142/34 72/144/63
f 72/144/63 87/142/34 74/145/64
f 74/145/64 87/142/34 76/146/65
f 76/146/65 87/142/34 78/147/66
f 78/147/66 87/142/34 80/148/67
f 80/148/67 87/142/34 82/149/68
f 82/149/68 87/142/34 84/150/69
f 84/150/69 87/142/34 86/151/70
f 86/151/70 87/142/34 70/141/61
f 4/1/1 3/152/2 2/2/2
f 2/2/2 3/152/2 6/4/3
f 5/5/3 6/4/3 8/6/4
f 7/7/4 8/6/4 10/8/5
f 10/10/5 12/13/6 11/11/6
f 12/13/6 14/15/7 13/14/7
f 14/15/7 16/153/8 15/16/8
f 15/16/8 16/153/8 18/17/9
f 18/17/9 20/154/10 19/19/10
f 19/19/10 20/154/10 22/20/11
f 22/20/11 24/23/12 23/22/12
f 24/23/12 26/25/13 25/24/13
f 26/25/13 28/155/14 27/26/14
f 27/26/14 28/155/14 30/27/15
f 30/27/15 32/156/16 31/29/16
f 31/29/16 32/156/16 4/1/1
f 1/30/17 2/33/18 34/31/18
f 2/33/18 5/157/19 35/34/19
f 35/34/19 5/157/19 7/35/20
f 36/36/20 7/35/20 9/37/21
f 9/37/21 11/40/22 38/39/22
f 11/40/22 13/158/23 39/41/23
f 39/41/23 13/158/23 15/42/24
f 40/43/24 15/42/24 17/44/25
f 17/44/25 19/47/26 42/46/26
f 19/47/26 21/159/27 43/48/27
f 43/48/27 21/159/27 23/49/28
f 44/50/28 23/49/28 25/51/29
f 25/51/29 27/54/30 46/53/30
f 27/54/30 29/160/31 47/55/31
f 47/55/31 29/160/31 31/56/32
f 48/57/32 31/56/32 1/30/17
f 33/58/9 34/61/10 50/59/10
f 34/61/10 35/63/11 51/62/11
f 35/63/11 36/65/12 52/64/12
f 36/65/12 37/161/13 53/66/13
f 37/67/13 38/162/14 54/68/14
f 54/68/14 38/162/14 39/70/15
f 55/71/15 39/70/15 40/72/16
f 56/73/16 40/72/16 41/74/1
f 57/75/1 41/74/1 42/76/2
f 58/77/2 42/76/2 43/78/3
f 43/78/3 44/81/4 60/80/4
f 44/81/4 45/83/5 61/82/5
f 45/83/5 46/163/6 62/84/6
f 62/84/6 46/163/6 47/85/7
f 47/85/7 48/88/8 64/87/8
f 48/88/8 33/58/9 49/60/9
f 67/123/51 70/164/51 69/124/52
f 69/124/52 72/165/53 71/126/53
f 71/126/53 72/165/53 74/127/54
f 73/129/54 74/166/54 76/130/55
f 76/130/55 78/167/56 77/132/56
f 77/132/56 78/167/56 80/133/57
f 79/134/57 80/133/57 82/135/58
f 82/135/58 84/138/59 83/137/59
f 84/138/59 86/140/60 85/139/60
f 86/140/60 70/164/51 67/123/51
