# Blender v3.0.0 OBJ File: 'maus.blend'
# www.blender.org
o crawler_track.002_track2
v 0.675442 -0.031015 0.031176
v 0.675442 0.021932 0.031176
v 0.675442 -0.031015 -0.201991
v 0.675442 0.021932 -0.201991
v 1.620951 -0.031015 0.031176
v 1.620951 0.021932 0.031176
v 1.620951 -0.031015 -0.201991
v 1.620951 0.021932 -0.201991
vt 0.526935 0.427805
vt 0.500118 0.421716
vt 0.526935 0.421716
vt 0.500118 0.427805
vt 0.494029 0.542817
vt 0.494029 0.427805
vt 0.500118 0.542817
vt 0.526935 0.548906
vt 0.500118 0.548906
vt 0.526935 0.542817
vt 0.533025 0.427805
vt 0.533025 0.542817
vt 0.467212 0.427805
vt 0.467212 0.542817
vn -1.0000 0.0000 0.0000
vn 0.0000 0.0000 -1.0000
vn 1.0000 0.0000 0.0000
vn 0.0000 0.0000 1.0000
vn 0.0000 -1.0000 0.0000
vn 0.0000 1.0000 0.0000
s off
f 2/1/1 3/2/1 1/3/1
f 4/4/2 7/5/2 3/6/2
f 8/7/3 5/8/3 7/9/3
f 6/10/4 1/11/4 5/12/4
f 7/5/5 1/13/5 3/6/5
f 4/4/6 6/10/6 8/7/6
f 2/1/1 4/4/1 3/2/1
f 4/4/2 8/7/2 7/5/2
f 8/7/3 6/10/3 5/8/3
f 6/10/4 2/1/4 1/11/4
f 7/5/5 5/14/5 1/13/5
f 4/4/6 2/1/6 6/10/6
