# Blender v3.0.0 OBJ File: 'maus.blend'
# www.blender.org
o weaponchild.004_barrel.002
v -0.432107 2.317945 3.444864
v -0.402110 2.309906 3.444864
v -0.402110 2.309906 2.244864
v -0.432107 2.317945 2.244864
v -0.413360 2.290421 3.444864
v -0.432107 2.295444 3.444864
v -0.432109 2.257945 3.184520
v -0.380148 2.287945 3.444864
v -0.380148 2.287945 2.244864
v -0.399634 2.276695 3.444864
v -0.372110 2.257945 3.444864
v -0.372110 2.257945 2.244864
v -0.394610 2.257945 3.444864
v -0.380148 2.227945 3.444864
v -0.380148 2.227945 2.244864
v -0.399634 2.239195 3.444864
v -0.402110 2.205983 3.444864
v -0.402110 2.205983 2.244864
v -0.413360 2.225469 3.444864
v -0.432107 2.197945 3.444864
v -0.432107 2.197945 2.244864
v -0.432107 2.220445 3.444864
v -0.462110 2.205983 3.444864
v -0.462110 2.205983 2.244864
v -0.450860 2.225469 3.444864
v -0.484071 2.227945 3.444864
v -0.484071 2.227945 2.244864
v -0.464586 2.239195 3.444864
v -0.492110 2.257945 3.444864
v -0.492110 2.257945 2.244864
v -0.469610 2.257945 3.444864
v -0.484071 2.287945 3.444864
v -0.484071 2.287945 2.244864
v -0.464586 2.276695 3.444864
v -0.462110 2.309906 3.444864
v -0.462110 2.309906 2.244864
v -0.450860 2.290421 3.444864
v -0.432109 2.257945 0.570274
vt 0.361668 0.673254
vt 0.364275 0.773996
vt 0.361668 0.773996
vt 0.044420 0.968372
vt 0.045866 0.967620
vt 0.055329 0.987571
vt 0.364275 0.673254
vt 0.366882 0.773996
vt 0.043034 0.969229
vt 0.366883 0.673254
vt 0.369489 0.773996
vt 0.041715 0.970186
vt 0.369490 0.673254
vt 0.372097 0.773996
vt 0.040470 0.971237
vt 0.374705 0.673254
vt 0.372097 0.673254
vt 0.039305 0.972377
vt 0.377312 0.673254
vt 0.374704 0.773996
vt 0.038229 0.973600
vt 0.348631 0.673254
vt 0.346024 0.773996
vt 0.346023 0.673254
vt 0.053700 0.965549
vt 0.055329 0.965489
vt 0.351238 0.673254
vt 0.348631 0.773996
vt 0.052081 0.965729
vt 0.353846 0.773996
vt 0.351239 0.773996
vt 0.050479 0.966028
vt 0.353846 0.673254
vt 0.356453 0.773996
vt 0.048903 0.966445
vt 0.359060 0.673254
vt 0.356453 0.673254
vt 0.047363 0.966976
vt 0.359061 0.773996
vt 0.636932 0.892188
vt 0.634185 0.891667
vt 0.636443 0.890363
vt 0.634706 0.894414
vt 0.635521 0.893002
vt 0.632882 0.896532
vt 0.632882 0.893925
vt 0.634706 0.896043
vt 0.634185 0.898790
vt 0.635521 0.897455
vt 0.636444 0.900094
vt 0.638562 0.898269
vt 0.636932 0.898269
vt 0.639973 0.897455
vt 0.639051 0.900094
vt 0.642613 0.896532
vt 0.641309 0.898790
vt 0.640788 0.894414
vt 0.640788 0.896043
vt 0.639973 0.893002
vt 0.642613 0.893925
vt 0.639051 0.890363
vt 0.641309 0.891667
vt 0.638562 0.892188
vt 0.377311 0.773996
vn 0.0000 1.0000 0.0000
vn 0.5000 0.8660 0.0000
vn -0.4969 -0.8606 0.1115
vn -0.0000 -0.9938 0.1115
vn -0.9937 -0.0744 -0.0842
vn 0.8660 0.5000 0.0000
vn -0.8606 -0.4969 0.1115
vn 1.0000 0.0000 -0.0000
vn -0.9938 0.0000 0.1115
vn 0.8660 -0.5000 -0.0000
vn -0.8606 0.4969 0.1115
vn 0.5000 -0.8660 0.0000
vn -0.4969 0.8606 0.1115
vn 0.0000 -1.0000 -0.0000
vn -0.0000 0.9938 0.1115
vn -0.5000 -0.8660 -0.0000
vn 0.4969 0.8606 0.1116
vn -0.8660 -0.5000 -0.0000
vn 0.8606 0.4969 0.1116
vn -1.0000 0.0000 0.0000
vn 0.9938 0.0000 0.1115
vn -0.8660 0.5000 0.0000
vn 0.8606 -0.4969 0.1116
vn -0.5000 0.8660 0.0000
vn 0.4969 -0.8606 0.1115
vn 0.0000 0.0000 1.0000
s 1
f 1/1/1 3/2/2 4/3/1
f 5/4/3 6/5/4 7/6/5
f 2/7/2 9/8/6 3/2/2
f 10/9/7 5/4/3 7/6/5
f 8/10/6 12/11/8 9/8/6
f 13/12/9 10/9/7 7/6/5
f 11/13/8 15/14/10 12/11/8
f 16/15/11 13/12/9 7/6/5
f 17/16/12 15/14/10 14/17/10
f 19/18/13 16/15/11 7/6/5
f 20/19/14 18/20/12 17/16/12
f 22/21/15 19/18/13 7/6/5
f 23/22/16 21/23/14 20/24/14
f 25/25/17 22/26/15 7/6/5
f 26/27/18 24/28/16 23/22/16
f 28/29/19 25/25/17 7/6/5
f 26/27/18 30/30/20 27/31/18
f 31/32/21 28/29/19 7/6/5
f 29/33/20 33/34/22 30/30/20
f 34/35/23 31/32/21 7/6/5
f 35/36/24 33/34/22 32/37/22
f 37/38/25 34/35/23 7/6/5
f 1/1/1 36/39/24 35/36/24
f 6/5/4 37/38/25 7/6/5
f 6/40/26 2/41/26 1/42/26
f 10/43/26 2/41/26 5/44/26
f 10/43/26 11/45/26 8/46/26
f 13/47/26 14/48/26 11/45/26
f 16/49/26 17/50/26 14/48/26
f 22/51/26 17/50/26 19/52/26
f 25/53/26 20/54/26 22/51/26
f 25/53/26 26/55/26 23/56/26
f 31/57/26 26/55/26 28/58/26
f 34/59/26 29/60/26 31/57/26
f 34/59/26 35/61/26 32/62/26
f 37/63/26 1/42/26 35/61/26
f 1/1/1 2/7/2 3/2/2
f 2/7/2 8/10/6 9/8/6
f 8/10/6 11/13/8 12/11/8
f 11/13/8 14/17/10 15/14/10
f 17/16/12 18/20/12 15/14/10
f 20/19/14 21/64/14 18/20/12
f 23/22/16 24/28/16 21/23/14
f 26/27/18 27/31/18 24/28/16
f 26/27/18 29/33/20 30/30/20
f 29/33/20 32/37/22 33/34/22
f 35/36/24 36/39/24 33/34/22
f 1/1/1 4/3/1 36/39/24
f 6/40/26 5/44/26 2/41/26
f 10/43/26 8/46/26 2/41/26
f 10/43/26 13/47/26 11/45/26
f 13/47/26 16/49/26 14/48/26
f 16/49/26 19/52/26 17/50/26
f 22/51/26 20/54/26 17/50/26
f 25/53/26 23/56/26 20/54/26
f 25/53/26 28/58/26 26/55/26
f 31/57/26 29/60/26 26/55/26
f 34/59/26 32/62/26 29/60/26
f 34/59/26 37/63/26 35/61/26
f 37/63/26 6/40/26 1/42/26
