# Blender v3.0.0 OBJ File: 'maus.blend'
# www.blender.org
o drivewheel.001_wheels3
v 1.677397 0.482227 5.211401
v 1.677397 0.642954 5.179431
v 0.779140 0.642955 5.179431
v 0.779140 0.482228 5.211401
v 1.677397 0.779212 5.088386
v 0.779140 0.779213 5.088386
v 1.677397 0.870256 4.952128
v 0.779140 0.870257 4.952128
v 1.677397 0.902227 4.791401
v 0.779140 0.902228 4.791401
v 1.677397 0.870256 4.630674
v 0.779140 0.870257 4.630674
v 1.677397 0.779214 4.494416
v 0.779140 0.779214 4.494416
v 1.677397 0.642956 4.403372
v 0.779140 0.642956 4.403372
v 1.677397 0.482229 4.371401
v 0.779140 0.482229 4.371401
v 1.677397 0.321500 4.403372
v 0.779140 0.321501 4.403372
v 1.677397 0.185243 4.494416
v 0.779140 0.185244 4.494416
v 1.677397 0.094197 4.630674
v 0.779140 0.094198 4.630674
v 1.677397 0.062227 4.791401
v 0.779140 0.062228 4.791401
v 1.677397 0.094197 4.952128
v 0.779140 0.094198 4.952128
v 1.677397 0.185242 5.088386
v 0.779140 0.185243 5.088386
v 1.677397 0.321499 5.179431
v 0.779140 0.321500 5.179431
v 0.779140 0.482228 4.791401
v 1.677397 0.482227 4.791401
v 1.804502 0.482227 4.951401
v 1.804502 0.595364 4.904538
v 0.498921 0.595365 4.904538
v 0.498921 0.482228 4.951401
v 1.804502 0.642227 4.791401
v 0.498921 0.642228 4.791401
v 1.804502 0.595364 4.678264
v 0.498921 0.595365 4.678264
v 1.804502 0.482227 4.631401
v 0.498921 0.482228 4.631401
v 1.804502 0.369090 4.678264
v 0.498921 0.369090 4.678264
v 1.804502 0.322227 4.791401
v 0.498921 0.322228 4.791401
v 1.804502 0.369090 4.904538
v 0.498921 0.369090 4.904538
v 1.804502 0.482227 4.791401
vt 0.782569 0.396128
vt 0.824127 0.403709
vt 0.782569 0.403709
vt 0.782569 0.388546
vt 0.824127 0.396128
vt 0.782569 0.380964
vt 0.824127 0.388546
vt 0.782569 0.373382
vt 0.824127 0.380964
vt 0.782569 0.365801
vt 0.824127 0.373382
vt 0.782569 0.358219
vt 0.824127 0.365801
vt 0.782569 0.350637
vt 0.824127 0.358219
vt 0.782569 0.343056
vt 0.824127 0.350637
vt 0.782569 0.335474
vt 0.824127 0.343056
vt 0.782569 0.327892
vt 0.824127 0.335474
vt 0.782569 0.320310
vt 0.824127 0.327892
vt 0.782569 0.312729
vt 0.824127 0.320310
vt 0.782569 0.426454
vt 0.824127 0.434036
vt 0.782569 0.434036
vt 0.782569 0.418873
vt 0.824127 0.426454
vt 0.782569 0.411291
vt 0.824127 0.418873
vt 0.824127 0.411291
vt 0.545302 0.932730
vt 0.542400 0.925726
vt 0.561458 0.921935
vt 0.542400 0.918144
vt 0.545302 0.911139
vt 0.550663 0.905778
vt 0.557667 0.902877
vt 0.565249 0.902877
vt 0.572254 0.905778
vt 0.577615 0.911139
vt 0.580516 0.918144
vt 0.580516 0.925726
vt 0.577615 0.932730
vt 0.572254 0.938091
vt 0.565249 0.940993
vt 0.557667 0.940993
vt 0.550663 0.938091
vt 0.094755 0.910968
vt 0.100116 0.905607
vt 0.110912 0.921764
vt 0.091853 0.917973
vt 0.091854 0.925555
vt 0.094755 0.932559
vt 0.100116 0.937920
vt 0.107121 0.940822
vt 0.114702 0.940822
vt 0.121707 0.937920
vt 0.127068 0.932559
vt 0.129969 0.925554
vt 0.129969 0.917973
vt 0.127068 0.910968
vt 0.121707 0.905607
vt 0.114702 0.902706
vt 0.107121 0.902706
vt 0.619345 0.886156
vt 0.625011 0.825753
vt 0.625011 0.886156
vt 0.613680 0.886156
vt 0.619345 0.825753
vt 0.608014 0.886156
vt 0.613680 0.825753
vt 0.602349 0.886156
vt 0.608014 0.825753
vt 0.596683 0.886156
vt 0.602349 0.825753
vt 0.591017 0.886156
vt 0.596683 0.825753
vt 0.630676 0.886155
vt 0.636342 0.825753
vt 0.636342 0.886156
vt 0.630676 0.825753
vt 0.794112 0.298797
vt 0.794112 0.304463
vt 0.787273 0.301630
vt 0.790106 0.294791
vt 0.784440 0.294791
vt 0.780434 0.298797
vt 0.780434 0.304462
vt 0.784440 0.308469
vt 0.790106 0.308469
vt 0.824127 0.312729
vt 0.591017 0.825753
vn 0.0000 0.3827 0.9239
vn 0.0000 0.0000 1.0000
vn 0.0000 0.7071 0.7071
vn 0.0000 0.9239 0.3827
vn 0.0000 1.0000 0.0000
vn 0.0000 0.9239 -0.3827
vn -0.0000 0.7071 -0.7071
vn 0.0000 0.3827 -0.9239
vn 0.0000 0.0000 -1.0000
vn 0.0000 -0.3827 -0.9239
vn -0.0000 -0.7071 -0.7071
vn -0.0000 -0.9239 -0.3827
vn -0.0000 -1.0000 -0.0000
vn -0.0000 -0.9239 0.3827
vn 0.0000 -0.7071 0.7071
vn -0.0000 -0.3827 0.9239
vn -1.0000 0.0000 0.0000
vn 1.0000 0.0000 0.0000
s 1
f 2/1/1 4/2/2 1/3/2
f 5/4/3 3/5/1 2/1/1
f 7/6/4 6/7/3 5/4/3
f 9/8/5 8/9/4 7/6/4
f 11/10/6 10/11/5 9/8/5
f 13/12/7 12/13/6 11/10/6
f 15/14/8 14/15/7 13/12/7
f 17/16/9 16/17/8 15/14/8
f 19/18/10 18/19/9 17/16/9
f 21/20/11 20/21/10 19/18/10
f 23/22/12 22/23/11 21/20/11
f 25/24/13 24/25/12 23/22/12
f 27/26/14 26/27/13 25/28/13
f 29/29/15 28/30/14 27/26/14
f 31/31/16 30/32/15 29/29/15
f 1/3/2 32/33/16 31/31/16
f 4/34/17 3/35/17 33/36/17
f 3/35/17 6/37/17 33/36/17
f 6/37/17 8/38/17 33/36/17
f 8/38/17 10/39/17 33/36/17
f 10/39/17 12/40/17 33/36/17
f 12/40/17 14/41/17 33/36/17
f 14/41/17 16/42/17 33/36/17
f 16/42/17 18/43/17 33/36/17
f 18/43/17 20/44/17 33/36/17
f 20/44/17 22/45/17 33/36/17
f 22/45/17 24/46/17 33/36/17
f 24/46/17 26/47/17 33/36/17
f 26/47/17 28/48/17 33/36/17
f 28/48/17 30/49/17 33/36/17
f 30/49/17 32/50/17 33/36/17
f 32/50/17 4/34/17 33/36/17
f 2/51/18 1/52/18 34/53/18
f 5/54/18 2/51/18 34/53/18
f 7/55/18 5/54/18 34/53/18
f 9/56/18 7/55/18 34/53/18
f 11/57/18 9/56/18 34/53/18
f 13/58/18 11/57/18 34/53/18
f 15/59/18 13/58/18 34/53/18
f 17/60/18 15/59/18 34/53/18
f 19/61/18 17/60/18 34/53/18
f 21/62/18 19/61/18 34/53/18
f 23/63/18 21/62/18 34/53/18
f 25/64/18 23/63/18 34/53/18
f 27/65/18 25/64/18 34/53/18
f 29/66/18 27/65/18 34/53/18
f 31/67/18 29/66/18 34/53/18
f 1/52/18 31/67/18 34/53/18
f 36/68/3 38/69/2 35/70/2
f 39/71/5 37/72/3 36/68/3
f 41/73/7 40/74/5 39/71/5
f 43/75/9 42/76/7 41/73/7
f 45/77/11 44/78/9 43/75/9
f 47/79/13 46/80/11 45/77/11
f 49/81/15 48/82/13 47/83/13
f 35/70/2 50/84/15 49/81/15
f 36/85/18 35/86/18 51/87/18
f 39/88/18 36/85/18 51/87/18
f 41/89/18 39/88/18 51/87/18
f 43/90/18 41/89/18 51/87/18
f 45/91/18 43/90/18 51/87/18
f 47/92/18 45/91/18 51/87/18
f 49/93/18 47/92/18 51/87/18
f 35/86/18 49/93/18 51/87/18
f 2/1/1 3/5/1 4/2/2
f 5/4/3 6/7/3 3/5/1
f 7/6/4 8/9/4 6/7/3
f 9/8/5 10/11/5 8/9/4
f 11/10/6 12/13/6 10/11/5
f 13/12/7 14/15/7 12/13/6
f 15/14/8 16/17/8 14/15/7
f 17/16/9 18/19/9 16/17/8
f 19/18/10 20/21/10 18/19/9
f 21/20/11 22/23/11 20/21/10
f 23/22/12 24/25/12 22/23/11
f 25/24/13 26/94/13 24/25/12
f 27/26/14 28/30/14 26/27/13
f 29/29/15 30/32/15 28/30/14
f 31/31/16 32/33/16 30/32/15
f 1/3/2 4/2/2 32/33/16
f 36/68/3 37/72/3 38/69/2
f 39/71/5 40/74/5 37/72/3
f 41/73/7 42/76/7 40/74/5
f 43/75/9 44/78/9 42/76/7
f 45/77/11 46/80/11 44/78/9
f 47/79/13 48/95/13 46/80/11
f 49/81/15 50/84/15 48/82/13
f 35/70/2 38/69/2 50/84/15
