# Blender v3.0.0 OBJ File: 'maus.blend'
# www.blender.org
o crawler_track.003_track1.001
v -0.707860 -0.019805 0.201031
v -0.707860 -0.019805 -0.032135
v -1.588532 -0.019805 0.201031
v -1.588532 -0.019805 -0.032135
v -0.707860 0.056424 0.201031
v -0.707860 0.056424 -0.032135
v -1.588532 0.056424 -0.032135
v -1.588532 0.056424 0.201031
v -0.641762 0.045061 0.201031
v -0.641762 0.045061 -0.032135
v -1.654630 0.045061 -0.032135
v -1.654630 0.045061 0.201031
v -0.599474 -0.007484 0.201031
v -0.599474 -0.007484 -0.032135
v -1.696918 -0.007484 -0.032135
v -1.696918 -0.007484 0.201031
v -0.585601 0.006432 0.201031
v -0.585601 0.006432 -0.032135
v -1.710791 0.006432 -0.032135
v -1.710791 0.006432 0.201031
vt 0.768659 0.130506
vt 0.740542 0.116603
vt 0.740542 0.130506
vt 0.768659 0.242823
vt 0.828334 0.423054
vt 0.856451 0.414513
vt 0.828334 0.414513
vt 0.828334 0.302196
vt 0.856451 0.302196
vt 0.856451 0.293656
vt 0.856451 0.285112
vt 0.828334 0.293656
vt 0.732720 0.122076
vt 0.739057 0.116683
vt 0.737378 0.114914
vt 0.776481 0.251253
vt 0.770145 0.256646
vt 0.771823 0.258416
vt 0.739057 0.256646
vt 0.732720 0.251253
vt 0.737378 0.258416
vt 0.828334 0.285112
vt 0.856451 0.282673
vt 0.828334 0.282673
vt 0.856451 0.431598
vt 0.828334 0.434036
vt 0.856451 0.434036
vt 0.770145 0.116683
vt 0.776481 0.122076
vt 0.771823 0.114914
vt 0.740542 0.242823
vt 0.828334 0.431598
vt 0.856451 0.423054
vt 0.731350 0.130506
vt 0.777851 0.242823
vt 0.731350 0.242823
vt 0.768659 0.256726
vt 0.768659 0.116603
vt 0.777851 0.130506
vt 0.740542 0.256726
vn 0.1130 -0.9936 0.0000
vn 0.0000 -1.0000 0.0000
vn 0.1694 0.9855 0.0000
vn 0.0000 1.0000 0.0000
vn -0.1694 0.9855 0.0000
vn -0.5667 0.8239 0.0000
vn -0.0000 0.0000 1.0000
vn 0.0000 0.0000 -1.0000
vn -0.7082 -0.7060 0.0000
vn 0.7082 -0.7060 0.0000
vn 0.5667 0.8239 0.0000
vn -0.1130 -0.9936 0.0000
s off
f 2/1/1 13/2/1 1/3/1
f 1/3/2 4/4/2 2/1/2
f 9/5/3 6/6/3 5/7/3
f 8/8/4 6/6/4 7/9/4
f 11/10/5 8/8/5 7/9/5
f 19/11/6 12/12/6 11/10/6
f 9/13/7 13/14/7 17/15/7
f 11/16/8 15/17/8 19/18/8
f 16/19/7 12/20/7 20/21/7
f 20/22/9 15/23/9 16/24/9
f 18/25/10 13/26/10 14/27/10
f 14/28/8 10/29/8 18/30/8
f 3/31/7 12/20/7 16/19/7
f 17/32/11 10/33/11 9/5/11
f 2/1/8 10/29/8 14/28/8
f 1/3/7 9/13/7 5/34/7
f 4/4/8 11/16/8 7/35/8
f 7/35/8 2/1/8 4/4/8
f 3/31/7 5/34/7 8/36/7
f 3/31/12 15/37/12 4/4/12
f 2/1/1 14/38/1 13/2/1
f 1/3/2 3/31/2 4/4/2
f 9/5/3 10/33/3 6/6/3
f 8/8/4 5/7/4 6/6/4
f 11/10/5 12/12/5 8/8/5
f 19/11/6 20/22/6 12/12/6
f 20/22/9 19/11/9 15/23/9
f 18/25/10 17/32/10 13/26/10
f 3/31/7 8/36/7 12/20/7
f 17/32/11 18/25/11 10/33/11
f 2/1/8 6/39/8 10/29/8
f 1/3/7 13/14/7 9/13/7
f 4/4/8 15/17/8 11/16/8
f 7/35/8 6/39/8 2/1/8
f 3/31/7 1/3/7 5/34/7
f 3/31/12 16/40/12 15/37/12
