# Blender v3.0.0 OBJ File: 'maus.blend'
# www.blender.org
o turretweapon.004_mg
v 1.080214 2.568947 0.083028
v 1.079706 2.568947 0.301179
v 1.070214 2.551626 0.083028
v 1.069619 2.551476 0.301179
v 1.050214 2.551626 0.083028
v 1.049446 2.551476 0.301179
v 1.040214 2.568947 0.083028
v 1.039359 2.568947 0.301179
v 1.050214 2.586267 0.083028
v 1.049446 2.586417 0.301179
v 1.070214 2.586267 0.083028
v 1.069619 2.586417 0.301179
v 1.080215 2.568947 0.263762
v 1.070214 2.551626 0.263762
v 1.050214 2.551626 0.263762
v 1.040214 2.568947 0.263762
v 1.050214 2.586267 0.263762
v 1.070214 2.586267 0.263762
v 1.075366 2.568947 0.264663
v 1.067812 2.555862 0.264663
v 1.052703 2.555862 0.264663
v 1.045149 2.568947 0.264663
v 1.052703 2.582031 0.264663
v 1.067812 2.582031 0.264663
v 1.060214 2.568947 -0.290417
vt 0.625292 0.988302
vt 0.628547 0.987955
vt 0.628148 0.989106
vt 0.625825 0.996248
vt 0.628114 0.993918
vt 0.628547 0.995058
vt 0.625247 0.994727
vt 0.627852 0.992728
vt 0.624802 0.991513
vt 0.627780 0.991511
vt 0.957473 0.806094
vt 0.957473 0.804467
vt 0.958883 0.803653
vt 0.624944 0.989892
vt 0.627887 0.990297
vt 0.876950 0.988636
vt 0.875337 0.974055
vt 0.876950 0.974055
vt 0.878564 0.988636
vt 0.878564 0.974055
vt 0.880177 0.988636
vt 0.880177 0.974055
vt 0.881790 0.988636
vt 0.881790 0.974055
vt 0.883404 0.988636
vt 0.883404 0.974055
vt 0.875337 0.988636
vt 0.873723 0.974055
vt 0.060002 0.978650
vt 0.060975 0.979734
vt 0.059642 0.978823
vt 0.060071 0.977433
vt 0.059734 0.977213
vt 0.061149 0.976864
vt 0.061161 0.976459
vt 0.062542 0.977292
vt 0.062542 0.978906
vt 0.062193 0.977493
vt 0.062117 0.978831
vt 0.062442 0.979063
vt 0.625825 0.986764
vt 0.624898 0.993137
vt 0.960292 0.804467
vt 0.960292 0.806095
vt 0.958883 0.806908
vt 0.873723 0.988636
vt 0.061009 0.979337
vt 0.062193 0.978711
vn 0.9930 -0.0000 -0.1180
vn 0.5009 -0.8561 -0.1276
vn 0.4915 -0.8615 -0.1278
vn -0.4896 -0.8595 -0.1469
vn -0.4989 -0.8541 -0.1471
vn -0.9877 -0.0000 -0.1566
vn -0.4989 0.8541 -0.1471
vn -0.4896 0.8595 -0.1469
vn 0.0000 -0.0000 1.0000
vn 0.4915 0.8615 -0.1278
vn 0.5009 0.8561 -0.1276
vn 0.5000 0.8660 -0.0000
vn 1.0000 0.0000 -0.0000
vn -0.5000 0.8660 -0.0000
vn -1.0000 -0.0000 0.0000
vn -0.5000 -0.8660 -0.0000
vn 0.5000 -0.8660 -0.0000
vn 0.0917 0.1572 0.9833
vn 0.1828 -0.0000 0.9831
vn 0.0908 0.1578 0.9833
vn -0.0895 0.1567 0.9836
vn -0.0905 0.1562 0.9836
vn -0.1797 0.0000 0.9837
vn -0.0905 -0.1562 0.9836
vn 0.0908 -0.1578 0.9833
vn -0.0895 -0.1567 0.9836
vn 0.0917 -0.1572 0.9833
vn 0.1829 -0.0000 0.9831
s 1
f 2/1/1 20/2/2 19/3/1
f 4/4/3 21/5/4 20/6/2
f 6/7/5 22/8/6 21/5/4
f 22/8/6 10/9/7 23/10/8
f 10/11/9 8/12/9 6/13/9
f 23/10/8 12/14/10 24/15/11
f 24/15/11 2/1/1 19/3/1
f 18/16/12 1/17/13 11/18/12
f 17/19/14 11/18/12 9/20/14
f 16/21/15 9/20/14 7/22/15
f 15/23/16 7/22/15 5/24/16
f 14/25/17 5/24/16 3/26/17
f 13/27/13 3/28/17 1/17/13
f 24/29/18 13/30/19 18/31/20
f 23/32/21 18/31/20 17/33/22
f 22/34/23 17/33/22 16/35/23
f 15/36/24 22/34/23 16/35/23
f 14/37/25 21/38/26 15/36/24
f 13/30/19 20/39/27 14/40/25
f 2/1/1 4/41/3 20/2/2
f 4/4/3 6/7/5 21/5/4
f 6/7/5 8/42/6 22/8/6
f 22/8/6 8/42/6 10/9/7
f 6/13/9 4/43/9 10/11/9
f 4/43/9 2/44/9 10/11/9
f 2/44/9 12/45/9 10/11/9
f 23/10/8 10/9/7 12/14/10
f 24/15/11 12/14/10 2/1/1
f 18/16/12 13/27/13 1/17/13
f 17/19/14 18/16/12 11/18/12
f 16/21/15 17/19/14 9/20/14
f 15/23/16 16/21/15 7/22/15
f 14/25/17 15/23/16 5/24/16
f 13/27/13 14/46/17 3/28/17
f 24/29/18 19/47/28 13/30/19
f 23/32/21 24/29/18 18/31/20
f 22/34/23 23/32/21 17/33/22
f 15/36/24 21/38/26 22/34/23
f 14/37/25 20/48/27 21/38/26
f 13/30/19 19/47/28 20/39/27
