# Blender v3.0.0 OBJ File: 'maus.blend'
# www.blender.org
o bullet.001_Cylinder.010
v -0.000000 0.037500 -0.138668
v 0.000000 0.025830 0.107030
v 0.018750 0.032476 -0.138668
v 0.012915 0.022369 0.107030
v 0.032476 0.018750 -0.138668
v 0.022369 0.012915 0.107030
v 0.037500 0.000000 -0.138668
v 0.025830 -0.000000 0.107030
v 0.032476 -0.018750 -0.138668
v 0.022369 -0.012915 0.107030
v 0.018750 -0.032476 -0.138668
v 0.012915 -0.022369 0.107030
v -0.000000 -0.037500 -0.138668
v 0.000000 -0.025830 0.107030
v -0.018750 -0.032476 -0.138668
v -0.012915 -0.022369 0.107030
v -0.032476 -0.018750 -0.138668
v -0.022369 -0.012915 0.107030
v -0.037500 0.000000 -0.138668
v -0.025830 -0.000000 0.107030
v -0.032476 0.018750 -0.138668
v -0.022369 0.012915 0.107030
v -0.018750 0.032476 -0.138668
v -0.012915 0.022369 0.107031
v 0.000000 -0.000000 0.222949
v 0.000000 0.037500 0.013058
v 0.018750 0.032476 0.013058
v 0.032476 0.018750 0.013058
v 0.037500 -0.000000 0.013058
v 0.032476 -0.018750 0.013058
v 0.018750 -0.032476 0.013058
v 0.000000 -0.037500 0.013058
v -0.018750 -0.032476 0.013058
v -0.032476 -0.018750 0.013058
v -0.037500 -0.000000 0.013058
v -0.032476 0.018750 0.013058
v -0.018750 0.032476 0.013058
vt 1.000000 0.808765
vt 0.916667 1.000000
vt 0.916667 0.808765
vt 0.833333 0.808765
vt 0.833333 1.000000
vt 0.750000 0.808765
vt 0.666667 1.000000
vt 0.666667 0.808765
vt 0.583333 0.808765
vt 0.583333 1.000000
vt 0.500000 0.808765
vt 0.416667 1.000000
vt 0.416667 0.808765
vt 0.333333 0.808765
vt 0.333333 1.000000
vt 0.250000 0.808765
vt 0.250000 1.000000
vt 0.166667 0.808765
vt 0.083333 0.808765
vt 0.000000 0.500000
vt 0.083333 0.500000
vt 0.166667 1.000000
vt 0.000000 1.000000
vt 0.000000 0.808765
vt 0.630000 0.042154
vt 0.510000 0.250000
vt 0.630000 0.457846
vt 0.370000 0.457846
vt 0.250000 0.490000
vt 0.250000 0.250000
vt 0.130000 0.457846
vt 0.042154 0.370000
vt 0.010000 0.250000
vt 0.042154 0.130000
vt 0.130000 0.042154
vt 0.250000 0.010000
vt 0.370000 0.042154
vt 0.457846 0.130000
vt 0.490000 0.250000
vt 0.457846 0.370000
vt 0.166667 0.500000
vt 0.250000 0.500000
vt 0.333333 0.500000
vt 0.416667 0.500000
vt 0.500000 0.500000
vt 0.583333 0.500000
vt 0.666667 0.500000
vt 0.750000 0.500000
vt 0.833333 0.500000
vt 0.916667 0.500000
vt 1.000000 0.500000
vt 1.000000 1.000000
vt 0.750000 1.000000
vt 0.500000 1.000000
vt 0.083333 1.000000
vt 0.750000 0.490000
vt 0.870000 0.457846
vt 0.957846 0.370000
vt 0.990000 0.250000
vt 0.957846 0.130000
vt 0.870000 0.042154
vt 0.750000 0.010000
vt 0.542154 0.130000
vt 0.542154 0.370000
vn -0.0000 0.9981 0.0611
vn 0.4928 0.8535 0.1693
vn 0.4991 0.8644 0.0611
vn 0.8644 0.4991 0.0611
vn 0.8535 0.4928 0.1693
vn 0.9981 -0.0000 0.0611
vn 0.8535 -0.4928 0.1693
vn 0.8644 -0.4991 0.0611
vn 0.4991 -0.8644 0.0611
vn 0.4928 -0.8535 0.1693
vn -0.0000 -0.9981 0.0611
vn -0.4928 -0.8535 0.1693
vn -0.4991 -0.8644 0.0611
vn -0.8644 -0.4991 0.0611
vn -0.8535 -0.4928 0.1693
vn -0.9981 -0.0000 0.0611
vn -0.9856 -0.0000 0.1693
vn -0.8644 0.4991 0.0611
vn -0.4991 0.8644 0.0611
vn 0.0000 1.0000 0.0000
vn -0.5000 0.8660 0.0000
vn -0.8535 0.4928 0.1693
vn 0.0000 0.9856 0.1693
vn 0.0000 0.0000 -1.0000
vn 0.0000 -0.0000 1.0000
vn -0.4928 0.8535 0.1693
vn -0.0000 -0.9856 0.1693
vn 0.9856 -0.0000 0.1693
vn -0.8660 0.5000 0.0000
vn -1.0000 -0.0000 0.0000
vn -0.8660 -0.5000 -0.0000
vn -0.5000 -0.8660 -0.0000
vn -0.0000 -1.0000 -0.0000
vn 0.5000 -0.8660 -0.0000
vn 0.8660 -0.5000 -0.0000
vn 1.0000 -0.0000 -0.0000
vn 0.8660 0.5000 0.0000
vn 0.5000 0.8660 0.0000
s 1
f 26/1/1 4/2/2 27/3/3
f 4/2/2 28/4/4 27/3/3
f 6/5/5 29/6/6 28/4/4
f 29/6/6 10/7/7 30/8/8
f 10/7/7 31/9/9 30/8/8
f 12/10/10 32/11/11 31/9/9
f 32/11/11 16/12/12 33/13/13
f 16/12/12 34/14/14 33/13/13
f 18/15/15 35/16/16 34/14/14
f 20/17/17 36/18/18 35/16/16
f 37/19/19 1/20/20 23/21/21
f 22/22/22 37/19/19 36/18/18
f 37/19/19 2/23/23 26/24/1
f 15/25/24 19/26/24 23/27/24
f 4/28/2 2/29/23 25/30/25
f 2/29/23 24/31/26 25/30/25
f 24/31/26 22/32/22 25/30/25
f 22/32/22 20/33/17 25/30/25
f 20/33/17 18/34/15 25/30/25
f 18/34/15 16/35/12 25/30/25
f 16/35/12 14/36/27 25/30/25
f 14/36/27 12/37/10 25/30/25
f 12/37/10 10/38/7 25/30/25
f 10/38/7 8/39/28 25/30/25
f 8/39/28 6/40/5 25/30/25
f 6/40/5 4/28/2 25/30/25
f 21/41/29 37/19/19 23/21/21
f 35/16/16 21/41/29 19/42/30
f 34/14/14 19/42/30 17/43/31
f 33/13/13 17/43/31 15/44/32
f 32/11/11 15/44/32 13/45/33
f 31/9/9 13/45/33 11/46/34
f 30/8/8 11/46/34 9/47/35
f 7/48/36 30/8/8 9/47/35
f 5/49/37 29/6/6 7/48/36
f 3/50/38 28/4/4 5/49/37
f 1/51/20 27/3/3 3/50/38
f 26/1/1 2/52/23 4/2/2
f 4/2/2 6/5/5 28/4/4
f 6/5/5 8/53/28 29/6/6
f 29/6/6 8/53/28 10/7/7
f 10/7/7 12/10/10 31/9/9
f 12/10/10 14/54/27 32/11/11
f 32/11/11 14/54/27 16/12/12
f 16/12/12 18/15/15 34/14/14
f 18/15/15 20/17/17 35/16/16
f 20/17/17 22/22/22 36/18/18
f 37/19/19 26/24/1 1/20/20
f 22/22/22 24/55/26 37/19/19
f 37/19/19 24/55/26 2/23/23
f 23/27/24 1/56/24 3/57/24
f 3/57/24 5/58/24 23/27/24
f 5/58/24 7/59/24 23/27/24
f 7/59/24 9/60/24 11/61/24
f 11/61/24 13/62/24 15/25/24
f 15/25/24 17/63/24 19/26/24
f 19/26/24 21/64/24 23/27/24
f 7/59/24 11/61/24 23/27/24
f 11/61/24 15/25/24 23/27/24
f 21/41/29 36/18/18 37/19/19
f 35/16/16 36/18/18 21/41/29
f 34/14/14 35/16/16 19/42/30
f 33/13/13 34/14/14 17/43/31
f 32/11/11 33/13/13 15/44/32
f 31/9/9 32/11/11 13/45/33
f 30/8/8 31/9/9 11/46/34
f 7/48/36 29/6/6 30/8/8
f 5/49/37 28/4/4 29/6/6
f 3/50/38 27/3/3 28/4/4
f 1/51/20 26/1/1 27/3/3
